<svg xmlns="http://www.w3.org/2000/svg" width="50" height="50" viewBox="0 0 50 50" fill="none">
  <rect width="50" height="50" rx="12" fill="#EBE8FD"/>
  <path d="M34.1677 18.4956H30.0796C29.8592 16.4981 28.6597 15 27.142 15H23.9106C23.0783 15 22.295 15.4494 21.7319 16.2984C21.3158 16.8976 21.0465 17.6717 20.9731 18.4956H16.8849C15.8568 18.4956 15 19.3695 15 20.4682V33.0275C15 34.1011 15.8323 35 16.8849 35H34.1677C35.1958 35 36.0526 34.1261 36.0526 33.0275V20.4682C36.0526 19.3695 35.2203 18.4956 34.1677 18.4956ZM27.1175 24.2385H23.9351C23.2007 24.2385 22.5887 24.8876 22.5887 25.6866V26.4107C18.4272 25.437 16.5177 24.563 16.224 24.1635V20.6679C16.224 20.2934 16.5667 19.9938 16.9829 19.9938H34.0698C34.4859 19.9938 34.8286 20.2934 34.8286 20.6679V24.1386C34.5349 24.5381 32.6255 25.412 28.4639 26.4107V25.6866C28.4639 24.8876 27.8519 24.2385 27.1175 24.2385ZM22.7356 17.2472C22.9315 16.9725 23.3476 16.4981 23.9106 16.4981H27.142C27.9743 16.4981 28.6842 17.4719 28.8556 18.7453H22.1971C22.2705 18.171 22.4663 17.6467 22.7356 17.2472ZM34.1922 33.7266H16.8605C16.5177 33.7266 16.224 33.427 16.224 33.0774V25.6117C17.2766 26.161 19.186 26.8352 22.6867 27.6092C22.907 29.0574 24.1065 30.1561 25.5753 30.1561C27.0196 30.1561 28.2191 29.0574 28.4149 27.6092C31.9155 26.8352 33.825 26.161 34.8531 25.6117V33.0774C34.8286 33.427 34.5349 33.7266 34.1922 33.7266Z" fill="#6548EE"/>
</svg>